<svg width="466" height="466" viewBox="0 0 466 466" fill="none" xmlns="http://www.w3.org/2000/svg">
<g filter="url(#filter0_di_12_72)">
<path fill-rule="evenodd" clip-rule="evenodd" d="M441 233C441 347.875 347.875 441 233 441C118.125 441 25 347.875 25 233C25 118.125 118.125 25 233 25C347.875 25 441 118.125 441 233ZM345.182 128.353C337.545 124.72 326.233 127.445 316.284 135.371C311.157 139.835 306.865 145.175 303.609 151.142V146.683H163.245V151.142C159.927 145.158 155.565 139.817 150.364 135.371C140.497 127.445 129.186 124.72 121.466 128.353C118.927 129.705 116.84 131.77 115.461 134.293C114.082 136.817 113.471 139.688 113.704 142.555C113.704 211.994 173.566 223.925 185.001 225.576C193.626 235.715 204.575 243.618 216.914 248.612V287.048H185.166V295.304H197.552L190.946 328.331H183.887C182.792 328.331 181.742 328.766 180.967 329.541C180.193 330.315 179.758 331.365 179.758 332.46V348.973C179.758 350.068 180.193 351.118 180.967 351.892C181.742 352.667 182.792 353.102 183.887 353.102H282.968C284.063 353.102 285.113 352.667 285.887 351.892C286.661 351.118 287.096 350.068 287.096 348.973V332.46C287.096 331.365 286.661 330.315 285.887 329.541C285.113 328.766 284.063 328.331 282.968 328.331H276.032L269.427 295.304H281.812V287.048H249.941V248.612C262.279 243.618 273.228 235.715 281.853 225.576C293.289 223.925 353.15 211.994 353.15 142.555C353.364 139.666 352.723 136.779 351.306 134.253C349.888 131.728 347.759 129.675 345.182 128.353ZM121.961 142.555C121.961 137.394 124.438 136.197 125.264 135.825C129.392 133.926 137.319 135.371 145.328 141.811C155.566 150.068 162.708 167.861 165.185 174.219C167.066 188.886 171.643 203.079 178.685 216.081C160.726 211.911 121.961 196.636 121.961 142.555ZM288.169 216.04C295.216 203.054 299.794 188.874 301.669 174.219C304.146 167.861 311.288 149.986 321.527 141.811C329.536 135.371 337.669 133.926 341.591 135.825C342.416 136.197 344.893 137.394 344.893 142.555C344.893 196.471 306.128 211.829 288.169 216.04ZM302.4 114.865C303.174 115.639 303.609 116.689 303.609 117.784V138.426H163.245V117.784C163.245 116.689 163.68 115.639 164.454 114.865C165.228 114.091 166.278 113.656 167.373 113.656H299.481C300.576 113.656 301.626 114.091 302.4 114.865Z" fill="#9BF3B3"/>
</g>
<defs>
<filter id="filter0_di_12_72" x="0" y="0" width="466" height="466" filterUnits="userSpaceOnUse" color-interpolation-filters="sRGB">
<feFlood flood-opacity="0" result="BackgroundImageFix"/>
<feColorMatrix in="SourceAlpha" type="matrix" values="0 0 0 0 0 0 0 0 0 0 0 0 0 0 0 0 0 0 127 0" result="hardAlpha"/>
<feOffset/>
<feGaussianBlur stdDeviation="12.5"/>
<feComposite in2="hardAlpha" operator="out"/>
<feColorMatrix type="matrix" values="0 0 0 0 1 0 0 0 0 1 0 0 0 0 1 0 0 0 0.25 0"/>
<feBlend mode="normal" in2="BackgroundImageFix" result="effect1_dropShadow_12_72"/>
<feBlend mode="normal" in="SourceGraphic" in2="effect1_dropShadow_12_72" result="shape"/>
<feColorMatrix in="SourceAlpha" type="matrix" values="0 0 0 0 0 0 0 0 0 0 0 0 0 0 0 0 0 0 127 0" result="hardAlpha"/>
<feMorphology radius="11" operator="erode" in="SourceAlpha" result="effect2_innerShadow_12_72"/>
<feOffset dy="11"/>
<feGaussianBlur stdDeviation="8.5"/>
<feComposite in2="hardAlpha" operator="arithmetic" k2="-1" k3="1"/>
<feColorMatrix type="matrix" values="0 0 0 0 0.766667 0 0 0 0 1 0 0 0 0 0.830303 0 0 0 1 0"/>
<feBlend mode="normal" in2="shape" result="effect2_innerShadow_12_72"/>
</filter>
</defs>
</svg>
