<svg width="466" height="466" viewBox="0 0 466 466" fill="none" xmlns="http://www.w3.org/2000/svg">
<g filter="url(#filter0_di_21_25)">
<path fill-rule="evenodd" clip-rule="evenodd" d="M441 233C441 347.875 347.875 441 233 441C118.125 441 25 347.875 25 233C25 118.125 118.125 25 233 25C347.875 25 441 118.125 441 233ZM310.635 300.03C311.966 299.262 313.07 298.156 313.835 296.824C314.601 295.491 315.001 293.981 314.995 292.444V235.853L235.384 266.459C233.349 267.157 231.14 267.157 229.105 266.459L149.32 235.766V292.444C149.314 293.981 149.714 295.491 150.48 296.824C151.245 298.156 152.349 299.262 153.68 300.03C177.238 314.67 204.421 322.429 232.157 322.429C259.894 322.429 287.077 314.67 310.635 300.03ZM336.794 208.648L235.375 247.729C233.355 248.501 231.121 248.495 229.105 247.712L115.749 204.113C114.154 203.473 112.782 202.378 111.804 200.964C110.826 199.551 110.285 197.881 110.248 196.163C110.211 194.444 110.679 192.753 111.595 191.298C112.511 189.844 113.834 188.691 115.4 187.982L228.931 144.296C230.95 143.511 233.19 143.511 235.209 144.296L348.566 187.895C350.171 188.586 351.552 189.711 352.553 191.143C353.554 192.576 354.136 194.259 354.233 196.004V257.042C354.233 259.355 353.315 261.573 351.68 263.208C350.044 264.843 347.826 265.762 345.514 265.762C343.201 265.762 340.983 264.843 339.348 263.208C337.713 261.573 336.794 259.355 336.794 257.042V208.648Z" fill="#9BF3B3"/>
</g>
<defs>
<filter id="filter0_di_21_25" x="0" y="0" width="466" height="466" filterUnits="userSpaceOnUse" color-interpolation-filters="sRGB">
<feFlood flood-opacity="0" result="BackgroundImageFix"/>
<feColorMatrix in="SourceAlpha" type="matrix" values="0 0 0 0 0 0 0 0 0 0 0 0 0 0 0 0 0 0 127 0" result="hardAlpha"/>
<feOffset/>
<feGaussianBlur stdDeviation="12.5"/>
<feComposite in2="hardAlpha" operator="out"/>
<feColorMatrix type="matrix" values="0 0 0 0 1 0 0 0 0 1 0 0 0 0 1 0 0 0 0.25 0"/>
<feBlend mode="normal" in2="BackgroundImageFix" result="effect1_dropShadow_21_25"/>
<feBlend mode="normal" in="SourceGraphic" in2="effect1_dropShadow_21_25" result="shape"/>
<feColorMatrix in="SourceAlpha" type="matrix" values="0 0 0 0 0 0 0 0 0 0 0 0 0 0 0 0 0 0 127 0" result="hardAlpha"/>
<feMorphology radius="11" operator="erode" in="SourceAlpha" result="effect2_innerShadow_21_25"/>
<feOffset dy="11"/>
<feGaussianBlur stdDeviation="8.5"/>
<feComposite in2="hardAlpha" operator="arithmetic" k2="-1" k3="1"/>
<feColorMatrix type="matrix" values="0 0 0 0 0.766667 0 0 0 0 1 0 0 0 0 0.830303 0 0 0 1 0"/>
<feBlend mode="normal" in2="shape" result="effect2_innerShadow_21_25"/>
</filter>
</defs>
</svg>
