<svg width="58" height="57" viewBox="0 0 58 57" fill="none" xmlns="http://www.w3.org/2000/svg">
<circle cx="29" cy="28.1738" r="27" stroke="#76E494" stroke-width="2.34783"/>
<path d="M24.0694 16.4348H33.9303C37.6868 16.4348 40.739 19.487 40.739 23.2435V33.1044C40.739 34.9102 40.0217 36.642 38.7448 37.9189C37.4679 39.1957 35.7361 39.9131 33.9303 39.9131H24.0694C20.3129 39.9131 17.2607 36.8609 17.2607 33.1044V23.2435C17.2607 21.4377 17.9781 19.7059 19.255 18.429C20.5318 17.1522 22.2637 16.4348 24.0694 16.4348ZM23.8347 18.7826C22.7138 18.7826 21.6389 19.2279 20.8464 20.0204C20.0538 20.813 19.6086 21.8879 19.6086 23.0087V33.3392C19.6086 35.6752 21.4986 37.5652 23.8347 37.5652H34.1651C35.2859 37.5652 36.3608 37.12 37.1534 36.3275C37.9459 35.5349 38.3912 34.46 38.3912 33.3392V23.0087C38.3912 20.6726 36.5012 18.7826 34.1651 18.7826H23.8347ZM35.1629 20.5435C35.5521 20.5435 35.9253 20.6981 36.2005 20.9733C36.4757 21.2485 36.6303 21.6217 36.6303 22.0109C36.6303 22.4001 36.4757 22.7733 36.2005 23.0485C35.9253 23.3237 35.5521 23.4783 35.1629 23.4783C34.7737 23.4783 34.4005 23.3237 34.1253 23.0485C33.8501 22.7733 33.6955 22.4001 33.6955 22.0109C33.6955 21.6217 33.8501 21.2485 34.1253 20.9733C34.4005 20.6981 34.7737 20.5435 35.1629 20.5435ZM28.9999 22.3044C30.5566 22.3044 32.0495 22.9228 33.1503 24.0235C34.251 25.1243 34.8694 26.6172 34.8694 28.1739C34.8694 29.7306 34.251 31.2236 33.1503 32.3244C32.0495 33.4251 30.5566 34.0435 28.9999 34.0435C27.4432 34.0435 25.9502 33.4251 24.8495 32.3244C23.7487 31.2236 23.1303 29.7306 23.1303 28.1739C23.1303 26.6172 23.7487 25.1243 24.8495 24.0235C25.9502 22.9228 27.4432 22.3044 28.9999 22.3044ZM28.9999 24.6522C28.0658 24.6522 27.1701 25.0232 26.5096 25.6837C25.8492 26.3442 25.4781 27.2399 25.4781 28.1739C25.4781 29.108 25.8492 30.0037 26.5096 30.6642C27.1701 31.3246 28.0658 31.6957 28.9999 31.6957C29.9339 31.6957 30.8297 31.3246 31.4901 30.6642C32.1506 30.0037 32.5216 29.108 32.5216 28.1739C32.5216 27.2399 32.1506 26.3442 31.4901 25.6837C30.8297 25.0232 29.9339 24.6522 28.9999 24.6522Z" fill="#76E494"/>
</svg>
