<svg width="58" height="57" viewBox="0 0 58 57" fill="none" xmlns="http://www.w3.org/2000/svg">
<circle cx="29" cy="28.3479" r="27" stroke="#76E494" stroke-width="2.34783"/>
<path d="M21.9564 20.1317C21.9561 20.7544 21.7084 21.3515 21.2679 21.7915C20.8274 22.2316 20.2301 22.4787 19.6074 22.4784C18.9847 22.4781 18.3877 22.2304 17.9476 21.7899C17.5075 21.3494 17.2604 20.752 17.2607 20.1294C17.2611 19.5067 17.5087 18.9096 17.9492 18.4695C18.3898 18.0295 18.9871 17.7824 19.6097 17.7827C20.2324 17.783 20.8295 18.0307 21.2696 18.4712C21.7096 18.9117 21.9567 19.509 21.9564 20.1317ZM22.0268 24.2169H17.3312V38.9143H22.0268V24.2169ZM29.446 24.2169H24.7738V38.9143H29.399V31.2017C29.399 26.9052 34.9986 26.5061 34.9986 31.2017V38.9143H39.6355V29.6052C39.6355 22.3622 31.3477 22.6322 29.399 26.1891L29.446 24.2169Z" fill="#76E494"/>
</svg>
