<svg width="44" height="25" viewBox="0 0 44 25" fill="none" xmlns="http://www.w3.org/2000/svg">
<path fill-rule="evenodd" clip-rule="evenodd" d="M0.642819 0.806217C0.230106 1.24081 0 1.81727 0 2.41661C0 3.01595 0.230106 3.59241 0.642819 4.027L18.8235 22.8655C19.2243 23.2872 19.7066 23.623 20.2412 23.8524C20.7758 24.0819 21.3515 24.2002 21.9332 24.2002C22.515 24.2002 23.0906 24.0819 23.6252 23.8524C24.1598 23.623 24.6421 23.2872 25.0429 22.8655L43.3578 3.8906C44.2048 3.01061 44.2158 1.58501 43.3798 0.691818C43.1807 0.475571 42.9392 0.302574 42.6703 0.183569C42.4015 0.0645638 42.1111 0.00209045 41.8171 2.67029e-05C41.5231 -0.00203514 41.2319 0.0563545 40.9614 0.171576C40.6909 0.286797 40.447 0.456388 40.2448 0.669819L23.4875 18.0343C23.2871 18.2454 23.0459 18.4134 22.7785 18.5282C22.5111 18.643 22.2231 18.7023 21.9321 18.7023C21.6411 18.7023 21.3531 18.643 21.0857 18.5282C20.8184 18.4134 20.5771 18.2454 20.3767 18.0343L3.7514 0.808416C3.55121 0.59746 3.31016 0.429464 3.04294 0.314665C2.77573 0.199863 2.48794 0.140661 2.19711 0.140661C1.90628 0.140661 1.61849 0.199863 1.35128 0.314665C1.08407 0.429464 0.843019 0.595261 0.642819 0.806217Z" fill="#76E494"/>
</svg>
