<svg width="1440" height="4594" viewBox="0 0 1440 4594" fill="none" xmlns="http://www.w3.org/2000/svg">
<mask id="mask0_15_256" style="mask-type:alpha" maskUnits="userSpaceOnUse" x="-8" y="304" width="2110" height="4150">
<g opacity="0.73">
<path d="M1322.54 4452.9C1450.89 4399.52 1489.39 4227.84 1444.3 4101.89C1399.22 3975.94 1296.61 3881.86 1208.66 3781.41C1120.7 3680.96 1041.4 3556.87 1058.44 3422.06C1080.22 3249.7 1252.42 3115.81 1266.83 2943C1278.07 2808.3 1188.05 2691.81 1083.97 2618.82C1025.12 2577.55 952.208 2555.32 890.021 2519.21C607.996 2355.46 300.252 2506.8 140.257 2322.92C-32.9835 2123.8 13.7342 1936.63 69.5929 1849.24C141.14 1737.31 354.823 1497.6 661.833 1617.83C786.554 1666.68 915.544 1711.61 1050.62 1723.18C1252.84 1740.5 1477.16 1613.45 1527.94 1417.29C1562.74 1282.86 1518.8 1131.16 1592.61 1011.61C1642.22 931.264 1737.72 884.726 1831.53 877.048C1925.34 869.366 2017.61 896.006 2101.56 934.106" stroke="#76E494" stroke-miterlimit="10"/>
<path d="M1314.28 4450.49C1443.67 4390.72 1487.8 4216.73 1443.38 4085.91C1400.02 3958.22 1296.64 3862.09 1206.08 3763.1C1116.59 3665.27 1034.96 3546.69 1045.81 3415.78C1059.81 3248.48 1219.22 3114.01 1232.62 2942.01C1242.94 2805.18 1161.39 2686.6 1062.07 2607.8C1005.02 2562.53 932.507 2534.76 868.423 2496.36C596.754 2333.56 296.862 2476.23 139.946 2296.58C-28.7395 2103.31 12.2147 1920.29 65.8882 1831.96C133.905 1720.04 340.301 1489.96 638.492 1599.02C761.425 1643.98 890.15 1684.74 1024.06 1695.56C1221.22 1711.87 1438.45 1590.89 1492.16 1402.54C1529.32 1272.23 1491.53 1123.43 1564.12 1004.93C1613.66 923.754 1706.21 874.997 1798.21 862.656C1891.06 850.2 1984.17 870.344 2070.26 903.909" stroke="#76E494" stroke-miterlimit="10"/>
<path d="M1305.93 4448.33C1436.34 4382.18 1486.06 4205.9 1442.35 4070.17C1400.67 3940.77 1296.6 3842.53 1203.41 3745.01C1112.42 3649.79 1028.44 3536.72 1033.09 3409.7C1039.31 3247.45 1186.32 3112.42 1198.3 2941.2C1208.02 2802.25 1134.64 2681.39 1040.09 2596.94C984.832 2547.58 912.726 2514.39 846.751 2473.67C585.247 2312.23 293.434 2445.81 139.612 2270.4C-24.5093 2082.94 10.693 1904.09 62.1702 1814.8C126.675 1702.91 325.911 1482.31 615.097 1580.33C736.31 1621.4 864.689 1658 997.427 1668.08C1189.51 1683.39 1399.71 1568.43 1456.27 1387.92C1495.82 1261.69 1464.16 1115.81 1535.52 998.353C1584.98 916.349 1674.64 865.315 1764.76 848.379C1856.7 831.101 1950.6 844.809 2038.82 873.836" stroke="#76E494" stroke-miterlimit="10"/>
<path d="M1297.61 4446.18C1429.04 4373.65 1484.32 4195.1 1441.35 4054.45C1401.3 3923.35 1296.62 3822.99 1200.76 3726.94C1108.31 3634.3 1021.94 3526.77 1020.4 3403.65C1018.83 3246.44 1153.18 3110.84 1163.99 2940.41C1172.94 2799.33 1107.95 2676.05 1018.13 2586.12C964.665 2532.59 892.96 2494.1 825.091 2451.01C573.554 2291.31 290.021 2415.43 139.287 2244.25C-20.2659 2062.6 9.19347 1887.96 58.4551 1797.68C119.477 1685.85 311.696 1474.57 591.705 1561.67C711.275 1598.86 839.275 1630.93 970.8 1640.63C1157.86 1654.42 1361.06 1545.98 1420.38 1373.34C1462.37 1251.15 1437.08 1108.39 1506.94 991.816C1556.51 909.095 1643.13 855.6 1731.33 834.14C1822.41 811.98 1917.04 819.314 2007.41 843.807" stroke="#76E494" stroke-miterlimit="10"/>
<path d="M1289.32 4444.04C1421.78 4365.13 1482.59 4184.32 1440.4 4038.74C1401.93 3905.98 1296.72 3803.44 1198.16 3708.88C1104.28 3618.81 1015.47 3516.83 1007.74 3397.61C998.378 3245.43 1120.06 3109.27 1129.71 2939.65C1137.87 2796.44 1081.34 2670.59 996.186 2575.32C944.541 2517.54 873.209 2473.87 803.45 2428.38C561.693 2270.76 286.625 2385.08 138.98 2218.14C-16.011 2042.31 7.72399 1871.89 54.7577 1780.6C112.319 1668.87 297.678 1466.71 568.331 1543.06C686.347 1576.35 813.85 1604.17 944.194 1613.23C1126.19 1625.88 1322.53 1523.53 1384.52 1358.79C1428.99 1240.6 1409.82 1100.87 1478.38 985.314C1527.94 901.792 1611.67 845.85 1697.93 819.943C1788.19 792.832 1883.52 793.861 1976.02 813.819" stroke="#76E494" stroke-miterlimit="10"/>
<path d="M1281.06 4441.9C1414.55 4356.62 1480.84 4173.58 1439.48 4023.04C1402.55 3888.64 1296.87 3783.89 1195.58 3690.85C1100.3 3603.33 1008.79 3506.95 995.095 3391.59C977.636 3244.51 1086.92 3107.73 1095.45 2938.92C1102.8 2793.58 1054.82 2665.02 974.265 2564.56C924.475 2502.46 853.469 2453.71 781.826 2405.8C549.678 2250.54 283.247 2354.78 138.688 2192.07C-11.7359 2022.05 6.28379 1855.89 51.0684 1763.56C105.203 1651.96 283.858 1458.71 544.963 1524.49C661.512 1553.86 788.434 1577.47 917.604 1585.88C1094.54 1597.4 1284.13 1501.11 1348.68 1344.29C1395.71 1230.07 1382.57 1093.41 1449.85 978.862C1499.37 894.538 1580.26 836.07 1664.55 805.795C1754.02 773.663 1850.02 768.463 1944.66 783.888" stroke="#76E494" stroke-miterlimit="10"/>
<path d="M1272.82 4439.77C1407.34 4348.11 1479.09 4162.86 1438.58 4007.35C1403.15 3871.32 1297.08 3764.33 1193.02 3672.82C1096.37 3587.83 1002.32 3497.07 982.458 3385.58C957.16 3243.58 1053.75 3106.21 1061.18 2938.2C1067.69 2790.73 1028.38 2659.36 952.338 2553.81C904.443 2487.33 833.703 2433.63 760.198 2383.24C537.505 2230.61 279.864 2324.51 138.401 2166.03C-7.46038 2001.83 4.87513 1839.94 47.3858 1746.56C98.1241 1635.1 270.232 1450.52 521.597 1505.96C636.769 1531.37 763.013 1550.8 891.011 1558.56C1062.87 1568.97 1245.83 1478.7 1312.84 1329.82C1362.48 1219.53 1355.31 1085.96 1421.32 972.436C1470.81 887.307 1548.86 826.24 1631.17 791.681C1719.86 754.451 1816.52 743.103 1913.31 753.992" stroke="#76E494" stroke-miterlimit="10"/>
<path d="M1264.58 4437.63C1400.13 4339.6 1477.29 4152.15 1437.68 3991.66C1403.71 3854.01 1297.31 3744.76 1190.46 3654.81C1092.47 3572.32 995.862 3487.19 969.825 3379.58C936.69 3242.65 1020.56 3104.67 1026.9 2937.47C1032.58 2787.87 1002.03 2653.61 930.415 2543.06C884.472 2472.15 813.926 2413.58 738.57 2360.68C525.183 2210.91 276.495 2294.23 138.121 2139.99C-3.16967 1981.6 3.49586 1823.99 43.71 1729.54C91.0854 1618.27 266.452 1410.52 498.225 1487.42C607.568 1523.71 737.587 1524.15 864.41 1531.24C1031.2 1540.56 1207.65 1456.27 1276.98 1315.35C1329.32 1208.96 1328.04 1078.5 1392.77 965.998C1442.22 880.062 1517.43 816.317 1597.78 777.555C1685.69 735.147 1783.01 717.729 1881.95 724.092" stroke="#76E494" stroke-miterlimit="10"/>
<path d="M1256.34 4435.51C1392.92 4331.11 1475.46 4141.46 1436.79 3975.99C1404.24 3836.74 1297.58 3725.18 1187.9 3636.8C1088.6 3556.79 989.418 3477.32 957.191 3373.58C916.233 3241.72 987.334 3103.15 992.61 2936.76C997.423 2785.03 975.763 2647.79 908.482 2532.33C864.549 2456.93 794.116 2393.58 716.933 2338.14C512.723 2191.43 273.128 2263.96 137.847 2113.95C1.12598 1961.36 2.15044 1808.06 40.0342 1712.52C84.0781 1601.45 253.178 1399.03 474.843 1468.89C582.869 1502.94 712.145 1497.51 837.798 1503.92C999.503 1512.18 1169.6 1433.85 1241.11 1300.87C1296.23 1198.37 1300.73 1071.03 1364.21 959.557C1413.62 872.809 1485.98 806.317 1564.37 763.431C1651.48 715.773 1749.47 692.367 1850.56 694.2" stroke="#76E494" stroke-miterlimit="10"/>
<path d="M1248.09 4433.39C1385.7 4322.61 1473.59 4130.79 1435.89 3960.31C1404.74 3819.47 1297.88 3705.56 1185.34 3618.79C1084.75 3541.23 982.98 3467.44 944.552 3367.57C895.775 3240.8 954.073 3101.63 958.305 2936.04C962.239 2782.18 949.577 2641.91 886.541 2521.58C844.678 2441.66 774.264 2373.63 695.292 2315.58C500.126 2172.13 269.764 2233.69 137.58 2087.9C5.43155 1941.12 0.843042 1792.14 36.3705 1695.49C77.1217 1584.64 239.707 1387.82 451.461 1450.34C558.445 1481.93 686.695 1470.87 811.18 1476.6C967.796 1483.81 1131.69 1411.43 1205.22 1286.39C1263.23 1187.76 1273.41 1063.54 1335.65 953.099C1385 865.535 1454.49 796.238 1530.95 749.288C1617.23 696.311 1715.93 666.99 1819.16 664.29" stroke="#76E494" stroke-miterlimit="10"/>
<path d="M1239.85 4431.27C1378.49 4314.13 1471.68 4120.14 1434.99 3944.64C1405.22 3802.21 1298.2 3685.93 1182.79 3600.78C1080.93 3525.64 976.55 3457.57 931.912 3361.56C875.322 3239.86 920.78 3100.1 923.993 2935.31C927.031 2779.32 923.48 2635.98 864.598 2510.82C824.865 2426.37 754.377 2353.73 673.646 2293.03C487.41 2153.01 266.408 2203.42 137.321 2061.85C9.75266 1920.87 -0.425085 1776.21 32.7092 1678.45C70.2041 1567.83 226.031 1376.94 428.071 1431.79C534.297 1460.63 661.236 1444.25 784.548 1449.28C936.071 1455.46 1093.91 1389.05 1169.32 1271.9C1230.32 1177.15 1246.07 1056.03 1307.07 946.633C1356.35 858.246 1422.95 786.09 1497.51 735.145C1582.93 676.779 1682.36 641.614 1787.74 634.388" stroke="#76E494" stroke-miterlimit="10"/>
<path d="M1231.6 4429.15C1371.27 4305.64 1469.74 4109.49 1434.1 3928.97C1405.66 3784.96 1298.54 3666.26 1180.23 3582.78C1077.14 3510.03 970.135 3447.69 919.271 3355.56C854.882 3238.92 887.464 3098.56 889.667 2934.58C891.789 2776.47 897.455 2630.03 842.647 2500.07C805.109 2411.05 734.445 2333.87 651.993 2270.47C474.571 2134.02 263.056 2173.14 137.068 2035.79C14.0814 1900.61 -1.64953 1760.29 29.0579 1661.4C63.3328 1551.02 204.972 1404.99 404.679 1413.22C514.388 1417.75 635.775 1417.63 757.917 1421.95C904.338 1427.12 1056.29 1366.7 1133.41 1257.4C1197.51 1166.54 1218.71 1048.5 1278.49 940.144C1327.7 850.93 1391.36 775.875 1464.06 720.977C1548.56 657.173 1648.79 616.214 1756.31 604.461" stroke="#76E494" stroke-miterlimit="10"/>
<path d="M1223.35 4427.04C1364.06 4297.16 1467.77 4098.84 1433.2 3913.31C1406.08 3767.71 1298.92 3646.57 1177.68 3564.78C1073.36 3494.4 963.729 3437.8 906.632 3349.54C834.45 3237.97 854.121 3097.03 855.334 2933.85C856.527 2773.61 871.506 2624.06 820.699 2489.31C785.412 2395.72 714.459 2314.09 630.347 2247.91C461.635 2115.18 259.426 2143.11 136.832 2009.73C18.1476 1880.59 -2.824 1744.37 25.4229 1644.34C56.5152 1534.23 192.407 1394.73 381.294 1394.66C490.159 1394.62 610.311 1391.03 731.285 1394.62C872.604 1398.82 1018.84 1344.42 1097.49 1242.9C1164.83 1155.99 1191.35 1040.96 1249.9 933.655C1299.03 843.612 1359.72 765.617 1430.61 706.814C1514.14 637.522 1615.21 590.826 1724.88 574.548" stroke="#76E494" stroke-miterlimit="10"/>
<path d="M1215.1 4424.93C1356.83 4288.69 1465.75 4088.22 1432.31 3897.65C1406.48 3750.48 1299.31 3626.85 1175.12 3546.78C1069.59 3478.75 957.325 3427.92 893.983 3343.54C814.016 3237.02 820.744 3095.51 820.987 2933.13C821.226 2770.75 845.614 2618.09 798.737 2478.55C765.759 2380.39 694.406 2294.38 608.683 2225.36C448.577 2096.46 256.081 2112.84 136.59 1983.67C22.4949 1860.32 -3.9637 1728.45 21.778 1627.29C49.7289 1517.44 179.916 1384.02 357.89 1376.1C465.964 1371.29 584.825 1364.45 704.633 1367.3C840.841 1370.53 981.518 1322.24 1061.55 1228.4C1132.25 1145.51 1163.95 1033.41 1221.29 927.16C1270.34 836.283 1328.01 755.331 1397.13 692.643C1479.63 617.827 1581.6 565.433 1693.41 544.628" stroke="#76E494" stroke-miterlimit="10"/>
<path d="M1206.85 4422.82C1349.61 4280.22 1463.71 4077.59 1431.41 3882C1406.85 3733.25 1299.72 3607.1 1172.57 3528.79C1065.85 3463.06 950.933 3418.02 881.339 3337.53C793.594 3236.04 787.351 3093.98 786.632 2932.4C785.904 2767.9 819.784 2612.12 776.773 2467.79C746.155 2365.06 674.277 2274.74 587.019 2202.81C435.425 2077.84 252.749 2082.56 136.364 1957.6C26.8644 1840.04 -5.04804 1712.53 18.1525 1610.21C42.9977 1500.62 167.468 1372.83 334.494 1357.52C441.793 1347.68 559.346 1337.88 677.982 1339.96C809.075 1342.26 944.345 1300.17 1025.61 1213.89C1099.81 1135.11 1136.55 1025.84 1192.68 920.653C1241.63 828.939 1296.25 745.006 1363.65 678.466C1445.06 598.095 1547.99 540.032 1661.95 514.708" stroke="#76E494" stroke-miterlimit="10"/>
<path d="M1198.6 4420.72C1342.39 4271.76 1461.63 4066.97 1430.52 3866.35C1407.21 3716.03 1300.16 3587.32 1170.02 3510.79C1062.12 3447.35 944.551 3408.11 868.701 3331.52C773.177 3235.06 753.936 3092.45 752.28 2931.67C750.564 2765.04 794.017 2606.16 754.815 2457.03C726.606 2349.72 654.078 2255.18 565.366 2180.25C422.185 2059.31 249.443 2052.27 136.155 1931.52C31.2639 1819.73 -6.07344 1696.59 14.5398 1593.13C36.3183 1483.81 155.003 1361.16 311.102 1338.93C417.606 1323.77 533.864 1311.33 651.331 1312.62C777.311 1314.01 907.298 1278.24 989.658 1199.37C1067.49 1124.85 1109.12 1018.26 1164.07 914.128C1212.91 821.57 1264.44 734.658 1330.16 664.269C1410.41 578.328 1514.36 514.618 1630.47 484.773" stroke="#76E494" stroke-miterlimit="10"/>
<path d="M1190.35 4418.61C1335.16 4263.29 1459.52 4056.36 1429.63 3850.7C1407.55 3698.8 1300.61 3567.49 1167.48 3492.8C1058.41 3431.61 938.173 3398.19 856.059 3325.51C752.756 3234.07 720.497 3090.92 717.912 2930.94C715.187 2762.18 768.292 2600.21 732.847 2446.26C707.09 2334.39 633.768 2235.72 543.698 2157.69C408.841 2040.86 246.14 2021.97 135.942 1905.45C35.6672 1799.42 -7.06125 1680.65 10.9265 1576.04C29.6774 1466.99 142.413 1349.03 287.7 1320.35C393.328 1299.5 508.373 1284.8 624.672 1285.29C745.53 1285.79 870.338 1256.48 953.696 1184.86C1035.27 1114.76 1081.68 1010.67 1135.44 907.609C1184.16 814.204 1232.56 724.31 1296.66 650.085C1375.69 558.557 1480.72 489.219 1598.98 454.849" stroke="#76E494" stroke-miterlimit="10"/>
<path d="M1182.1 4416.51C1327.94 4254.83 1457.38 4045.75 1428.74 3835.05C1407.87 3681.58 1301.07 3547.64 1164.93 3474.81C1054.7 3415.85 931.927 3388.09 843.408 3319.49C732.506 3232.84 687.026 3089.39 683.532 2930.2C679.78 2759.32 742.599 2594.28 710.871 2435.49C687.611 2319.07 613.338 2216.36 522.024 2135.13C395.399 2022.47 243.072 1991.44 135.733 1879.36C40.2883 1778.9 -8.00255 1664.69 7.31754 1558.94C23.0789 1450.14 129.618 1336.45 264.294 1301.74C368.884 1274.79 482.87 1258.29 598.001 1257.94C713.734 1257.58 833.435 1234.9 917.718 1170.32C1003.14 1104.87 1054.22 1003.06 1106.81 901.063C1155.4 806.809 1200.63 713.936 1263.14 635.87C1340.9 538.757 1447.07 463.792 1567.48 424.903" stroke="#76E494" stroke-miterlimit="10"/>
<path d="M1173.84 4414.42C1320.71 4246.37 1455.21 4035.15 1427.85 3819.41C1408.18 3664.36 1301.55 3527.75 1162.38 3456.82C1051 3400.06 925.511 3378.19 830.764 3313.48C712.031 3231.86 653.542 3087.87 649.147 2929.47C644.348 2756.47 716.945 2588.37 688.894 2424.72C668.162 2303.76 592.773 2197.14 500.353 2112.57C381.867 2004.16 239.762 1961.16 135.535 1853.28C44.6886 1758.6 -8.89259 1648.72 3.71546 1541.84C16.5194 1433.29 116.503 1323.51 240.886 1283.15C344.18 1249.64 457.37 1231.83 571.329 1230.61C681.939 1229.42 796.553 1213.54 881.736 1155.8C971.086 1095.23 1026.75 995.456 1078.17 894.529C1126.63 799.418 1168.66 703.578 1229.62 621.674C1306.06 518.974 1413.41 438.383 1535.97 394.975" stroke="#76E494" stroke-miterlimit="10"/>
<path d="M1165.59 4412.32C1313.48 4237.92 1453.01 4024.54 1426.95 3803.76C1408.46 3647.14 1302.03 3507.83 1159.83 3438.84C1047.3 3384.24 919.088 3368.28 818.112 3307.46C691.549 3230.88 619.717 3086.37 614.752 2928.73C608.538 2753.64 691.319 2582.47 666.912 2413.94C648.738 2288.46 572.041 2178.05 478.674 2090.01C368.236 1985.87 236.448 1930.86 135.339 1827.19C49.0918 1738.28 -9.73366 1632.73 0.11947 1524.72C10.0011 1416.4 102.95 1310.26 217.476 1264.54C319.096 1223.98 431.861 1205.39 544.649 1203.25C650.132 1201.25 759.638 1192.38 845.737 1141.26C939.049 1085.85 999.077 987.737 1049.52 887.965C1097.65 791.917 1136.64 693.202 1196.08 607.445C1271.14 499.163 1379.74 412.947 1504.44 365.02" stroke="#76E494" stroke-miterlimit="10"/>
<path d="M1157.34 4410.22C1306.25 4229.46 1450.46 4013.98 1426.06 3788.12C1408.52 3629.95 1302.54 3487.86 1157.29 3420.85C1043.62 3368.4 912.678 3358.38 805.47 3301.44C671.076 3229.89 586.346 3084.84 580.356 2927.99C573.221 2750.77 665.724 2576.6 644.933 2403.16C629.349 2273.16 551.119 2159.12 456.998 2067.44C354.509 1967.61 233.147 1900.56 135.155 1801.09C53.5138 1717.95 -10.5278 1616.72 -3.46997 1507.6C3.52288 1399.5 88.8319 1296.83 194.066 1245.93C293.506 1197.83 406.356 1178.98 517.966 1175.9C618.323 1173.12 722.641 1171.45 809.735 1126.72C907.004 1076.76 971.661 980.137 1020.87 881.401C1068.91 784.527 1104.58 682.842 1162.54 593.222C1236.18 479.369 1346.06 387.519 1472.91 335.071" stroke="#76E494" stroke-miterlimit="10"/>
<path d="M1149.08 4408.13C1299.02 4221.02 1448.52 4003.34 1425.17 3772.49C1409.01 3612.7 1303.04 3467.86 1154.75 3402.86C1039.93 3352.54 906.265 3348.47 792.821 3295.42C650.591 3228.9 552.964 3083.3 545.95 2927.24C537.895 2747.9 640.145 2570.74 622.947 2392.38C609.978 2257.88 529.952 2140.37 435.317 2044.87C340.683 1949.37 229.851 1870.26 134.978 1774.98C57.9412 1697.62 -11.2685 1600.67 -7.04708 1490.47C-2.91564 1382.57 74.0375 1283.36 170.658 1227.3C267.278 1171.25 380.852 1152.62 491.284 1148.54C586.517 1145.02 685.518 1150.72 773.728 1112.17C874.893 1067.95 944.241 972.528 992.209 874.825C1040.18 777.121 1072.48 672.48 1128.99 578.983C1201.16 459.57 1312.37 362.071 1441.36 305.11" stroke="#76E494" stroke-miterlimit="10"/>
</g>
</mask>
<g mask="url(#mask0_15_256)">
<rect width="2057" height="4430" transform="matrix(-0.976605 -0.215041 -0.215041 0.976605 2301.87 452.29)" fill="url(#paint0_linear_15_256)"/>
</g>
<defs>
<linearGradient id="paint0_linear_15_256" x1="1028.5" y1="0" x2="1028.5" y2="4430" gradientUnits="userSpaceOnUse">
<stop stop-color="#76E494" stop-opacity="0.74"/>
<stop offset="1" stop-color="#2A743E" stop-opacity="0"/>
</linearGradient>
</defs>
</svg>
