<svg width="338" height="352" viewBox="0 0 338 352" fill="none" xmlns="http://www.w3.org/2000/svg">
<g opacity="0.8" filter="url(#filter0_d_3_242)">
<path d="M34.7465 12.2174C34.7981 12.2179 34.8481 12.236 34.8882 12.2685C34.9283 12.3011 34.9562 12.3463 34.9674 12.3967C34.9785 12.4472 34.9722 12.4999 34.9494 12.5464C34.9267 12.5928 34.8889 12.6301 34.8423 12.6523C33.5943 13.3254 32.425 14.1803 31.3342 15.217C25.5563 20.7001 20.1173 26.5002 15.0174 32.6172C14.9944 32.6472 14.9623 32.669 14.926 32.6795C14.8896 32.6899 14.8508 32.6885 14.8154 32.6753C14.7799 32.6621 14.7496 32.6378 14.729 32.6062C14.7083 32.5745 14.6983 32.537 14.7005 32.4992C14.8135 28.2444 14.8675 23.9699 14.8626 19.6757C14.8553 14.2441 16.5798 12.1069 21.9303 11.9669C26.1753 11.8588 30.4474 11.9423 34.7465 12.2174Z" stroke="#76E494" stroke-width="3"/>
<path d="M123.67 24.4506C87.8969 34.3409 59.7368 57.1137 41.7912 89.7989C27.9286 115.041 21.9811 143.407 14.0364 171.206C14.0211 171.275 13.9802 171.336 13.922 171.376C13.8637 171.416 13.7924 171.433 13.7223 171.423C13.6523 171.413 13.5887 171.376 13.5445 171.321C13.5002 171.266 13.4785 171.196 13.4837 171.125C13.7048 140.147 13.9725 109.096 14.287 77.9703C14.2968 76.86 14.5597 75.8257 15.0756 74.8676C29.0046 48.8472 48.5813 28.1281 73.8058 12.7104C74.0132 12.5851 74.2502 12.5189 74.4912 12.5188C86.5139 12.5532 98.4972 12.622 110.441 12.7252C113.861 12.7546 116.418 12.6367 118.268 15.3709C120.189 18.2108 122.061 21.0482 123.884 23.8831C123.916 23.9325 123.936 23.9889 123.943 24.0476C123.949 24.1063 123.942 24.1657 123.921 24.221C123.9 24.2763 123.866 24.3259 123.823 24.3658C123.779 24.4056 123.727 24.4347 123.67 24.4506Z" stroke="#76E494" stroke-width="3"/>
<path d="M235.921 13.9708C243.87 13.9757 251.83 14.0568 259.799 14.214C260.03 14.2189 260.246 14.2853 260.447 14.413C289.057 32.786 316.237 60.6882 325.103 94.1178C325.604 96.0094 325.845 98.0435 325.825 100.22C325.467 141.742 325.091 183.266 324.698 224.792C324.678 226.748 324.619 228.224 324.521 229.222C324.481 229.605 324.361 229.632 324.16 229.303C316.097 216.081 312.523 201.541 310.127 186.447C306.177 161.611 303.377 136.347 297.93 111.791C294.842 97.8543 290.701 86.6374 282.152 75.5753C266.803 55.6964 247.752 40.4531 224.998 29.8454C224.777 29.7374 224.667 29.5605 224.667 29.3148C224.667 25.9468 223.93 19.1223 225.721 16.4618C228.086 12.9317 232.28 13.9708 235.921 13.9708Z" stroke="#76E494" stroke-width="3"/>
<path d="M308.882 15.2089C310.982 15.2456 312.688 15.1136 312.691 14.9142C312.694 14.7148 310.995 14.5234 308.895 14.4868C306.795 14.4501 305.09 14.5821 305.086 14.7815C305.083 14.9809 306.782 15.1723 308.882 15.2089Z" stroke="#76E494" stroke-width="3"/>
<path d="M315.301 50.982C312.058 42.6541 316.989 32.9186 325.928 30.7445C326.282 30.656 326.456 30.7936 326.452 31.1572L326.208 65.788C326.203 66.2008 326.085 66.2352 325.855 65.8912C323.84 62.9138 321.7 60.0322 319.435 57.2464C317.274 54.5834 315.895 52.4953 315.301 50.982Z" stroke="#76E494" stroke-width="3"/>
<path d="M35.5272 173.867C42.7423 114.414 73.9683 60.2166 135.418 44.1282C135.739 44.0451 136.079 44.0658 136.389 44.1876C136.698 44.3093 136.962 44.5258 137.143 44.8063L154.314 71.8388C154.354 71.9027 154.336 71.9395 154.263 71.9494C103.484 78.4791 75.9508 119.942 67.6228 166.814C66.2226 174.685 65.0434 186.941 62.4124 196.957C53.9002 229.369 33.4857 261.148 12.9239 287.082C12.5554 287.549 12.3736 287.485 12.3785 286.891C12.521 268.874 12.6733 251.245 12.8354 234.005C12.8453 233.489 13.2039 232.636 13.9114 231.447C24.6788 213.391 32.992 194.701 35.5272 173.867Z" stroke="#76E494" stroke-width="3"/>
<path d="M323.385 313.805C300.915 300.525 285.033 278.099 274.162 255.119C259.253 223.606 260.049 186.491 254.699 152.944C250.999 129.788 242.605 108.637 224.372 93.3367C224.155 93.1549 224.047 92.9215 224.047 92.6366L224.305 56.9739C224.306 56.9226 224.32 56.8723 224.347 56.8282C224.373 56.784 224.41 56.7475 224.455 56.7222C224.499 56.6968 224.55 56.6836 224.601 56.6838C224.653 56.6841 224.703 56.6977 224.747 56.7234C253.613 72.5783 272.283 96.4812 280.758 128.432C286.794 151.19 288.777 176.572 291.548 200.885C292.889 212.691 295.026 224.992 299.426 235.958C305.248 250.457 313.421 263.565 323.946 275.283C324.122 275.48 324.208 275.723 324.204 276.013L323.909 313.511C323.909 313.914 323.734 314.012 323.385 313.805Z" stroke="#76E494" stroke-width="3"/>
<path d="M204.503 154.801C191.819 130.385 164.735 115.151 140.127 135.463C123.066 149.547 122.558 168.214 119.219 188.297C119.175 188.553 119.037 188.742 118.806 188.865C116.662 190.007 115.431 191.422 115.261 194.031C114.93 199.33 115.667 205.093 114.429 210.215C108.587 234.359 99.2295 257.043 86.3568 278.268C73.8576 298.889 59.5527 318.058 44.8573 337.315C44.7493 337.455 44.6109 337.568 44.4525 337.646C44.2941 337.724 44.12 337.765 43.9434 337.765C35.7285 337.701 27.4301 337.598 19.0481 337.455C17.0337 337.421 15.5253 337.07 14.523 336.401C11.7077 334.522 11.1771 330.822 13.2923 328.066C28.4225 308.367 43.5307 288.549 56.907 267.604C70.5166 246.295 80.0605 223.535 85.5388 199.322C87.961 188.617 90.1032 176.849 91.9653 164.021C94.7806 144.673 102.981 128.434 116.566 115.306C130.281 102.048 149.936 94.1474 169.15 95.7467C169.4 95.7664 169.594 95.8818 169.732 96.0931C183.892 118.414 198.039 140.73 212.175 163.041C214.703 167.028 220.503 167.396 222.692 162.93C223.144 162.011 223.374 160.562 223.384 158.582C223.424 148.353 223.546 138.165 223.753 128.019C223.758 127.557 223.888 127.518 224.143 127.901C227.445 132.824 230.916 138.219 233.26 143.407C248.147 176.336 238.139 216.634 226.037 248.671C218.643 268.23 210.109 287.159 200.435 305.455C200.248 305.809 200.046 305.819 199.83 305.485L181.229 276.698C181.098 276.493 181.023 276.259 181.01 276.017C180.997 275.776 181.047 275.535 181.155 275.32C187.989 261.499 194.018 247.224 199.241 232.494C205.453 214.998 209.92 196.868 209.956 179.284C209.979 171.074 208.335 162.186 204.503 154.801Z" stroke="#76E494" stroke-width="3"/>
<path d="M160.195 158.073C171.243 152.096 183.735 161.257 182.504 173.77C180.064 198.437 171.891 224.18 162.642 247.1C162.51 247.425 162.35 247.439 162.163 247.145L141.756 215.609C141.685 215.496 141.639 215.369 141.623 215.238C141.606 215.107 141.619 214.974 141.66 214.85C146.357 201.049 149.88 185.619 152.229 168.56C152.833 164.168 156.26 160.203 160.195 158.073Z" stroke="#76E494" stroke-width="3"/>
<path d="M297.304 340.079L251.243 339.644C250.973 339.639 250.739 339.543 250.543 339.357C250.169 339.003 249.764 338.541 249.327 337.971C234.58 318.618 227.077 293.236 232.089 269.203C236.098 249.953 264.995 254.043 262.172 274.819C258.325 303.171 273.441 325.936 297.437 339.578C298.036 339.917 297.992 340.084 297.304 340.079Z" stroke="#76E494" stroke-width="3"/>
<path d="M107.376 338.28C98.473 338.435 89.5334 338.052 80.6675 338.103C80.611 338.103 80.5556 338.087 80.5071 338.058C80.4586 338.029 80.4188 337.988 80.3917 337.938C80.3647 337.888 80.3514 337.832 80.3532 337.776C80.355 337.72 80.3719 337.665 80.4022 337.617C91.9728 319.816 102.698 301.539 112.579 282.785C112.903 282.166 113.375 280.781 113.883 280.036C113.913 279.987 113.958 279.948 114.012 279.928C114.066 279.907 114.126 279.905 114.181 279.922C114.236 279.939 114.284 279.974 114.317 280.021C114.35 280.069 114.366 280.126 114.362 280.184C114.195 297.277 114.018 314.363 113.832 331.441C113.78 335.907 111.783 338.206 107.376 338.28Z" stroke="#76E494" stroke-width="3"/>
</g>
<defs>
<filter id="filter0_d_3_242" x="0.500977" y="0.421143" width="337.451" height="351.158" filterUnits="userSpaceOnUse" color-interpolation-filters="sRGB">
<feFlood flood-opacity="0" result="BackgroundImageFix"/>
<feColorMatrix in="SourceAlpha" type="matrix" values="0 0 0 0 0 0 0 0 0 0 0 0 0 0 0 0 0 0 127 0" result="hardAlpha"/>
<feOffset/>
<feGaussianBlur stdDeviation="5"/>
<feComposite in2="hardAlpha" operator="out"/>
<feColorMatrix type="matrix" values="0 0 0 0 1 0 0 0 0 1 0 0 0 0 1 0 0 0 0.3 0"/>
<feBlend mode="normal" in2="BackgroundImageFix" result="effect1_dropShadow_3_242"/>
<feBlend mode="normal" in="SourceGraphic" in2="effect1_dropShadow_3_242" result="shape"/>
</filter>
</defs>
</svg>
