<svg width="50" height="50" viewBox="0 0 50 50" fill="none" xmlns="http://www.w3.org/2000/svg">
<path d="M3.6167 0.0451464C3.62491 0.0452229 3.63286 0.0479663 3.63924 0.0529279C3.64562 0.0578895 3.65005 0.0647767 3.65182 0.0724652C3.65359 0.0801538 3.65259 0.0881895 3.64897 0.0952606C3.64536 0.102332 3.63935 0.108021 3.63193 0.111399C3.4335 0.213958 3.24756 0.344215 3.07413 0.502171C2.15539 1.33762 1.29056 2.22135 0.479636 3.15336C0.475974 3.15793 0.470878 3.16126 0.465097 3.16285C0.459316 3.16445 0.453153 3.16422 0.447516 3.16221C0.441878 3.1602 0.437061 3.15651 0.433773 3.15169C0.430485 3.14686 0.428898 3.14115 0.429246 3.13539C0.447215 2.4871 0.455809 1.83581 0.455027 1.18153C0.453856 0.353946 0.72807 0.0283032 1.57884 0.00696788C2.25383 -0.00950146 2.93311 0.00322443 3.6167 0.0451464Z" fill="#76E494"/>
<path d="M17.7564 1.90906C12.0682 3.416 7.59053 6.88579 4.73706 11.8659C2.5328 15.7119 1.58711 20.0339 0.323849 24.2696C0.321418 24.2801 0.314916 24.2893 0.305651 24.2955C0.296386 24.3016 0.285044 24.3041 0.273908 24.3026C0.262773 24.301 0.252669 24.2954 0.245628 24.287C0.238588 24.2786 0.235134 24.268 0.23596 24.2572C0.271116 19.5372 0.313694 14.806 0.363693 10.0636C0.365255 9.89444 0.407052 9.73686 0.489082 9.59088C2.70389 5.62626 5.81673 2.46939 9.82761 0.12026C9.86059 0.10117 9.89828 0.0910741 9.93659 0.0910645C11.8483 0.0963047 13.7537 0.106785 15.6529 0.122506C16.1967 0.126997 16.6033 0.10903 16.8974 0.52563C17.2029 0.958325 17.5005 1.39065 17.7904 1.82259C17.7955 1.83013 17.7987 1.83872 17.7997 1.84766C17.8008 1.85661 17.7996 1.86566 17.7963 1.87408C17.7929 1.8825 17.7876 1.89006 17.7807 1.89613C17.7738 1.90221 17.7654 1.90664 17.7564 1.90906Z" fill="#76E494"/>
<path d="M35.6048 0.312391C36.8689 0.31314 38.1345 0.325491 39.4016 0.349447C39.4383 0.350195 39.4727 0.360302 39.5048 0.379766C44.0539 3.17918 48.3757 7.43052 49.7854 12.524C49.8651 12.8122 49.9034 13.1222 49.9003 13.4538C49.8433 19.7803 49.7835 26.1071 49.721 32.4343C49.7179 32.7323 49.7085 32.9572 49.6929 33.1092C49.6866 33.1676 49.6675 33.1717 49.6354 33.1216C48.3534 31.1071 47.7851 28.8916 47.4042 26.5918C46.7761 22.8076 46.3308 18.9583 45.4648 15.2168C44.9738 13.0934 44.3152 11.3843 42.9559 9.69879C40.5153 6.66993 37.486 4.34738 33.8681 2.73114C33.833 2.71467 33.8154 2.68772 33.8154 2.65029C33.8154 2.13712 33.6982 1.0973 33.983 0.691934C34.3591 0.154061 35.0259 0.312391 35.6048 0.312391Z" fill="#76E494"/>
<path d="M47.2066 0.500206C47.5405 0.505791 47.8116 0.485865 47.8122 0.455701C47.8127 0.425537 47.5425 0.396557 47.2086 0.390972C46.8747 0.385387 46.6036 0.405312 46.603 0.435477C46.6025 0.465641 46.8727 0.494621 47.2066 0.500206Z" fill="#76E494"/>
<path d="M48.2269 5.9516C47.7113 4.68271 48.4953 3.19935 49.9167 2.86809C49.973 2.85462 50.0007 2.87558 49.9999 2.93097L49.9613 8.20753C49.9605 8.27041 49.9417 8.27565 49.905 8.22325C49.5847 7.76959 49.2445 7.33053 48.8843 6.90608C48.5406 6.50033 48.3214 6.18217 48.2269 5.9516Z" fill="#76E494"/>
<path d="M3.74088 24.6751C4.88812 15.6166 9.85328 7.35873 19.6242 4.90741C19.6753 4.89474 19.7293 4.89791 19.7786 4.91645C19.8278 4.935 19.8698 4.96799 19.8984 5.01072L22.6289 9.12956C22.6351 9.13929 22.6324 9.1449 22.6207 9.1464C14.5466 10.1413 10.1685 16.4588 8.84431 23.6005C8.62166 24.7998 8.43416 26.6672 8.01581 28.1932C6.66231 33.1318 3.41627 37.9737 0.146792 41.9253C0.0881992 41.9964 0.0592928 41.9866 0.060074 41.8961C0.0827299 39.1509 0.106949 36.4649 0.132729 33.8381C0.134292 33.7595 0.191322 33.6296 0.30382 33.4484C2.0159 30.6973 3.33776 27.8496 3.74088 24.6751Z" fill="#76E494"/>
<path d="M49.5127 45.9968C45.9397 43.9733 43.4144 40.5563 41.6859 37.0551C39.3152 32.2535 39.4418 26.5985 38.591 21.487C38.0028 17.9589 36.668 14.7361 33.7688 12.4049C33.7345 12.3773 33.7173 12.3417 33.7173 12.2983L33.7583 6.86451C33.7584 6.85669 33.7607 6.84903 33.7649 6.84231C33.769 6.83558 33.775 6.83001 33.7821 6.82615C33.7892 6.82229 33.7972 6.82028 33.8054 6.82031C33.8135 6.82034 33.8215 6.82242 33.8286 6.82633C38.4184 9.24209 41.3871 12.8841 42.7347 17.7522C43.6945 21.2198 44.0097 25.0871 44.4503 28.7916C44.6636 30.5905 45.0034 32.4646 45.703 34.1355C46.6288 36.3446 47.9284 38.3419 49.6018 40.1273C49.6299 40.1573 49.6436 40.1943 49.6428 40.2385L49.5959 45.9519C49.5959 46.0133 49.5682 46.0282 49.5127 45.9968Z" fill="#76E494"/>
<path d="M30.6093 21.7701C28.5925 18.0499 24.286 15.7289 20.3731 18.8236C17.6603 20.9695 17.5794 23.8138 17.0486 26.8737C17.0415 26.9127 17.0197 26.9415 16.983 26.9602C16.6419 27.1343 16.4462 27.3499 16.4193 27.7474C16.3666 28.5547 16.4837 29.4329 16.2869 30.2133C15.358 33.8919 13.8701 37.3482 11.8233 40.5822C9.8358 43.7241 7.56122 46.6448 5.22454 49.579C5.20738 49.6003 5.18536 49.6175 5.16017 49.6294C5.13499 49.6412 5.1073 49.6474 5.07923 49.6475C3.773 49.6377 2.45349 49.622 1.1207 49.6003C0.800392 49.5951 0.560552 49.5415 0.401179 49.4397C-0.0464701 49.1534 -0.130844 48.5897 0.205479 48.1697C2.6113 45.1682 5.01361 42.1487 7.14053 38.9574C9.30456 35.7107 10.8221 32.2428 11.6932 28.5536C12.0783 26.9224 12.419 25.1295 12.715 23.1749C13.1627 20.2269 14.4666 17.7527 16.6267 15.7524C18.8075 13.7323 21.9329 12.5286 24.9879 12.7722C25.0278 12.7752 25.0586 12.7928 25.0805 12.825C27.332 16.2259 29.5816 19.6261 31.8292 23.0255C32.2312 23.633 33.1534 23.6892 33.5014 23.0087C33.5733 22.8687 33.61 22.6479 33.6116 22.3462C33.6179 20.7876 33.6374 19.2353 33.6702 17.6895C33.671 17.6191 33.6917 17.6131 33.7323 17.6715C34.2573 18.4216 34.8092 19.2436 35.1819 20.0341C37.549 25.0513 35.9577 31.1913 34.0335 36.0726C32.8577 39.0528 31.5007 41.9368 29.9624 44.7246C29.9327 44.7785 29.9007 44.78 29.8663 44.7291L26.9086 40.343C26.8879 40.3118 26.8759 40.276 26.8738 40.2392C26.8718 40.2024 26.8797 40.1659 26.8969 40.1331C27.9836 38.0272 28.9421 35.8522 29.7726 33.6078C30.7605 30.942 31.4706 28.1797 31.4765 25.5004C31.48 24.2495 31.2187 22.8953 30.6093 21.7701Z" fill="#76E494"/>
<path d="M23.5642 22.2687C25.3208 21.358 27.3071 22.7538 27.1114 24.6605C26.7235 28.4188 25.4239 32.3412 23.9532 35.8334C23.9321 35.8828 23.9067 35.8851 23.877 35.8401L20.6322 31.0352C20.6209 31.018 20.6136 30.9987 20.611 30.9787C20.6083 30.9587 20.6104 30.9385 20.6169 30.9196C21.3638 28.8167 21.924 26.4657 22.2974 23.8666C22.3935 23.1973 22.9384 22.5932 23.5642 22.2687Z" fill="#76E494"/>
<path d="M45.3653 49.9999L38.0412 49.9336C37.9982 49.9329 37.9611 49.9183 37.9299 49.8898C37.8705 49.8359 37.8061 49.7656 37.7365 49.6787C35.3916 46.73 34.1987 42.8627 34.9956 39.2009C35.633 36.2678 40.2279 36.891 39.7791 40.0565C39.1674 44.3764 41.5708 47.845 45.3864 49.9235C45.4817 49.9752 45.4747 50.0006 45.3653 49.9999Z" fill="#76E494"/>
<path d="M15.1655 49.726C13.7499 49.7496 12.3284 49.6912 10.9187 49.6991C10.9097 49.699 10.9009 49.6967 10.8932 49.6922C10.8854 49.6878 10.8791 49.6815 10.8748 49.6739C10.8705 49.6664 10.8684 49.6579 10.8687 49.6492C10.869 49.6406 10.8717 49.6323 10.8765 49.625C12.7163 46.9128 14.4217 44.128 15.9928 41.2705C16.0444 41.1762 16.1194 40.9651 16.2002 40.8517C16.2049 40.8441 16.2121 40.8383 16.2207 40.8351C16.2293 40.832 16.2387 40.8317 16.2475 40.8343C16.2563 40.8368 16.2639 40.8422 16.2691 40.8494C16.2744 40.8567 16.2769 40.8654 16.2764 40.8742C16.2498 43.4786 16.2217 46.0818 16.192 48.684C16.1838 49.3645 15.8662 49.7148 15.1655 49.726Z" fill="#76E494"/>
</svg>
