<svg width="1440" height="917" viewBox="0 0 1440 917" fill="none" xmlns="http://www.w3.org/2000/svg">
<path d="M-801 273.235C-738.686 213.566 -672.793 157.635 -603.794 105.844C-573.121 82.8179 -540.989 60.1983 -504.043 49.9123C-409.594 23.6235 -313.412 83.5914 -241.12 149.815C-174.539 210.81 -115.244 279.754 -64.9021 354.714C-15.0123 428.998 27.0614 510.308 92.8889 570.923C158.716 631.534 257.709 667.634 338.938 630.104C387.268 607.777 422.221 562.418 441.406 512.755C460.59 463.093 465.543 409.108 466.674 355.881C467.971 294.938 465.27 230.622 494.409 177.079C524.572 121.655 588.829 86.7471 651.742 91.6057C741.245 98.5184 807.245 173.816 872.425 235.545C955.231 313.966 1056.14 379.544 1169.31 393.639C1282.49 407.734 1408.21 359.979 1461.42 259.108" stroke="#509863" stroke-width="0.75" stroke-miterlimit="10"/>
<path d="M-793.616 298.337C-732.413 239.624 -667.457 184.859 -599.345 134.43C-569.072 112.015 -537.368 90.0588 -501.054 79.9287C-428.112 59.5873 -354.052 90.3025 -290.831 135.083C-273.6 147.274 -257.169 160.511 -241.783 174.037C-175.615 232.266 -116.42 298.454 -65.8414 370.688C-15.7241 442.264 26.5511 521.179 91.9236 579.915C128.573 612.844 174.323 639.178 221.947 651.138C263.436 661.538 306.614 660.813 345.802 643.387C352.803 640.276 359.54 636.692 366.01 632.672C405.874 607.907 434.808 567.094 452.273 523.061C457.88 508.917 462.413 494.439 466.112 479.778C475.77 441.478 479.976 401.692 482.55 362.543C486.71 300.443 488.812 236.446 520.275 183.455C551.523 130.829 613.246 96.7699 674.719 101.206C762.181 107.514 827.268 179.003 891.434 237.047C896.491 241.623 901.616 246.147 906.803 250.615C985.231 318.12 1078.12 372.007 1180.63 382.345C1289.91 393.375 1410.4 345.029 1460.78 246.15" stroke="#509863" stroke-width="0.75" stroke-miterlimit="10"/>
<path d="M-786.229 323.44C-726.141 265.682 -662.114 212.084 -594.889 163.017C-565.012 141.206 -533.742 119.919 -498.06 109.945C-426.416 89.9221 -353.604 118.73 -291.098 161.223C-274.039 172.792 -257.744 185.376 -242.443 198.262C-176.697 253.719 -117.6 317.158 -66.7807 386.658C-16.4391 455.527 26.0928 531.995 90.9551 588.905C129.126 622.395 176.019 649.704 224.97 662.711C267.518 673.982 312.152 674.03 352.663 656.669C359.91 653.569 366.904 649.964 373.622 645.889C415.019 620.793 444.714 578.703 463.138 533.366C469.04 518.829 473.886 503.954 477.932 488.937C488.5 449.7 494.09 409.011 498.423 369.206C505.449 305.949 512.258 242.334 546.141 189.832C578.313 139.984 637.66 106.796 697.692 110.809C783.114 116.513 847.287 184.193 910.44 238.555C915.419 242.841 920.459 247.073 925.559 251.249C1002.66 314.337 1093.08 363.599 1191.94 371.058C1297.33 379.024 1412.58 330.086 1460.12 233.196" stroke="#509863" stroke-width="0.75" stroke-miterlimit="10"/>
<path d="M-778.845 348.543C-719.869 291.74 -656.774 239.306 -590.437 191.603C-560.96 170.404 -530.114 149.78 -495.07 139.962C-424.722 120.257 -353.159 147.157 -291.368 187.362C-274.484 198.308 -258.322 210.238 -243.106 222.484C-177.776 275.175 -118.776 335.858 -67.7197 402.628C-17.1507 468.79 25.6835 542.769 89.9868 597.897C129.698 631.941 177.716 660.234 227.995 674.287C271.603 686.429 317.694 687.248 359.527 669.955C367.025 666.864 374.269 663.237 381.236 659.11C424.171 633.679 454.62 590.315 474.006 543.675C480.204 528.745 485.361 513.474 489.755 498.098C501.234 457.923 508.208 416.333 514.295 375.871C524.185 311.458 535.599 248.282 572.008 196.208C604.943 149.104 662.077 116.822 720.666 120.41C804.05 125.512 867.31 189.377 929.446 240.057C934.343 244.051 939.3 247.993 944.314 251.877C1020.08 310.551 1108.03 355.189 1203.25 359.765C1304.75 364.662 1414.77 315.137 1459.47 220.238" stroke="#509863" stroke-width="0.75" stroke-miterlimit="10"/>
<path d="M-771.461 373.645C-713.596 317.798 -651.438 266.53 -585.984 220.19C-556.904 199.598 -526.491 179.637 -492.077 169.978C-423.026 150.595 -352.71 175.581 -291.634 213.501C-274.923 223.823 -258.901 235.104 -243.766 246.706C-178.852 296.628 -119.953 354.558 -68.6558 418.602C-17.8626 482.05 25.3226 553.5 89.0214 606.887C130.289 641.472 179.415 670.758 231.021 685.857C275.691 698.87 323.235 700.459 366.391 683.234C374.138 680.15 381.633 676.507 388.851 672.327C433.32 646.562 464.529 601.924 484.877 553.984C491.37 538.657 496.84 522.993 501.581 507.26C513.967 466.145 522.332 423.658 530.174 382.537C542.93 316.966 558.839 254.262 597.877 202.588C631.42 158.187 686.496 126.851 743.643 130.017C824.986 134.515 887.333 194.57 948.454 241.568C953.274 245.273 958.146 248.922 963.069 252.513C1037.51 306.771 1122.99 346.784 1214.56 348.478C1312.17 350.307 1416.96 300.193 1458.82 207.284" stroke="#509863" stroke-width="0.75" stroke-miterlimit="10"/>
<path d="M-764.074 398.748C-707.321 343.856 -646.095 293.755 -581.528 248.776C-552.848 228.792 -522.864 209.497 -489.084 199.994C-421.326 180.934 -352.262 204.008 -291.897 239.64C-275.362 249.338 -259.473 259.969 -244.425 270.928C-179.93 318.081 -121.129 373.258 -69.595 434.568C-18.5742 495.313 25.001 564.189 88.0563 615.879C130.897 650.995 181.115 681.284 234.047 697.433C279.777 711.314 328.776 713.676 373.251 696.52C381.249 693.446 388.994 689.783 396.462 685.548C442.469 659.451 474.435 613.539 495.742 564.293C502.531 548.573 508.315 532.512 513.402 516.421C526.697 474.37 536.363 430.961 546.047 389.203C561.53 322.442 581.966 260.261 623.744 208.964C657.751 167.212 710.91 136.877 766.617 139.617C845.919 143.511 907.353 199.757 967.46 243.069C972.199 246.482 976.989 249.842 981.825 253.141C1054.94 302.982 1137.94 338.37 1225.87 337.184C1319.59 335.949 1419.14 285.244 1458.17 194.323" stroke="#509863" stroke-width="0.75" stroke-miterlimit="10"/>
<path d="M-756.69 423.847C-701.051 369.911 -640.759 320.977 -577.076 277.359C-548.792 257.983 -519.237 239.354 -486.094 230.008C-419.633 211.265 -351.816 232.432 -292.167 265.776C-275.807 274.853 -260.051 284.831 -245.088 295.149C-181.009 339.534 -122.306 391.958 -70.5343 450.542C-19.2861 508.579 24.7116 574.842 87.0877 624.868C131.518 660.501 182.815 691.811 237.072 709.006C283.862 723.758 334.317 726.891 380.115 709.802C388.363 706.734 396.362 703.056 404.074 698.766C451.614 672.334 484.341 625.148 506.606 574.598C513.691 558.485 519.788 542.028 525.222 525.58C539.427 482.589 550.47 438.277 561.92 395.865C580.256 327.938 604.978 266.254 649.61 215.341C683.942 176.176 735.327 146.903 789.591 149.221C866.852 152.51 927.372 204.947 986.466 244.577C991.126 247.7 995.829 250.768 1000.58 253.774C1072.36 299.199 1152.9 329.966 1237.18 325.894C1327.01 321.594 1421.33 270.297 1457.51 181.369" stroke="#509863" stroke-width="0.75" stroke-miterlimit="10"/>
<path d="M-749.303 448.949C-694.776 395.966 -635.416 348.198 -572.62 305.946C-544.736 287.177 -515.61 269.215 -483.098 260.024C-417.933 241.6 -351.365 260.856 -292.43 291.913C-276.242 300.366 -260.623 309.693 -245.745 319.368C-182.082 360.987 -123.479 410.655 -71.467 466.509C-19.9944 521.836 24.4615 585.457 86.1258 633.858C132.161 669.991 184.518 702.337 240.101 720.576C287.953 736.199 339.861 740.102 386.982 723.082C395.481 720.024 403.729 716.325 411.692 711.98C460.769 685.213 494.25 636.754 517.477 584.901C524.858 568.394 531.266 551.54 537.048 534.735C552.16 490.809 564.588 445.586 577.796 402.524C598.989 333.434 627.881 272.221 675.479 221.714C710.01 185.071 759.747 156.926 812.568 158.818C887.788 161.505 947.395 210.131 1005.47 246.075C1010.05 248.909 1014.68 251.685 1019.34 254.398C1089.79 295.409 1167.85 321.549 1248.49 314.597C1334.43 307.229 1423.52 255.347 1456.86 168.408" stroke="#509863" stroke-width="0.75" stroke-miterlimit="10"/>
<path d="M-741.919 474.052C-688.503 422.024 -630.079 375.423 -568.168 334.532C-540.68 316.372 -511.983 299.075 -480.108 290.041C-416.237 271.938 -350.978 289.404 -292.7 318.052C-276.704 325.913 -261.202 334.558 -246.408 343.59C-183.164 382.44 -124.659 429.356 -72.4095 482.479C-20.7095 535.102 24.2306 596.045 85.154 642.851C132.811 679.461 186.211 712.867 243.12 732.152C292.032 748.646 345.396 753.319 393.84 736.368C402.585 733.319 411.087 729.598 419.3 725.201C469.911 698.103 504.152 648.369 528.338 595.21C536.015 578.31 542.735 561.059 548.865 543.893C564.887 499.028 578.699 452.905 593.665 409.187C617.721 338.929 650.663 278.149 701.339 228.087C735.954 193.894 784.154 166.946 835.535 168.418C908.714 170.501 967.408 215.318 1024.47 247.58C1028.97 250.122 1033.51 252.608 1038.08 255.032C1107.21 291.627 1182.8 313.144 1259.79 303.31C1341.84 292.874 1425.69 240.401 1456.2 155.454" stroke="#509863" stroke-width="0.75" stroke-miterlimit="10"/>
<path d="M-734.536 499.154C-682.234 448.082 -624.74 402.647 -563.716 363.119C-536.627 345.566 -508.359 328.936 -477.118 320.057C-414.543 302.273 -350.536 317.84 -292.97 344.191C-277.149 351.435 -261.78 359.423 -247.071 367.815C-184.243 403.895 -125.838 448.059 -73.3487 498.452C-21.4212 548.365 24.0324 606.597 84.1888 651.84C133.484 688.915 187.907 723.39 246.149 743.722C296.124 761.083 350.94 766.53 400.703 749.643C409.699 746.601 418.451 742.864 426.914 738.415C479.063 710.982 514.061 659.974 539.209 605.512C547.181 588.216 554.214 570.572 560.688 553.048C577.62 507.247 592.817 460.217 609.541 415.845C636.46 344.425 673.334 284.005 727.208 234.46C761.804 202.643 808.574 176.969 858.512 178.018C929.65 179.497 987.431 220.505 1043.48 249.081C1047.9 251.334 1052.36 253.527 1056.84 255.659C1124.64 287.837 1197.76 304.73 1271.1 292.013C1349.26 278.513 1427.88 225.451 1455.55 142.49" stroke="#509863" stroke-width="0.75" stroke-miterlimit="10"/>
<path d="M-727.148 524.257C-675.959 474.14 -619.4 429.872 -559.26 391.708C-532.568 374.763 -504.732 358.799 -474.125 350.077C-412.847 332.615 -350.084 346.277 -293.236 370.334C-277.588 376.957 -262.359 384.292 -247.731 392.04C-185.322 425.352 -127.012 466.762 -74.2847 514.429C-22.133 561.635 23.8569 617.127 83.2235 660.839C134.173 698.346 189.607 733.917 249.172 755.298C300.206 773.53 356.478 779.748 407.564 762.929C416.81 759.897 425.816 756.14 434.526 751.636C488.208 723.868 523.967 671.586 550.074 615.821C558.342 598.131 565.687 580.091 572.511 562.21C590.35 515.469 606.938 467.536 625.417 422.511C655.203 349.93 695.895 289.777 753.078 240.837C787.566 211.317 832.994 186.995 881.489 187.619C950.586 188.493 1007.45 225.689 1062.49 250.586C1066.83 252.549 1071.2 254.45 1075.6 256.29C1142.07 284.051 1212.71 296.323 1282.41 280.723C1356.68 264.158 1430.07 210.505 1454.9 129.536" stroke="#509863" stroke-width="0.75" stroke-miterlimit="10"/>
<path d="M-719.765 549.359C-669.686 500.198 -614.06 457.094 -554.811 420.295C-528.519 403.957 -501.109 388.66 -471.135 380.09C-411.154 362.946 -349.636 374.705 -293.506 396.469C-278.033 402.469 -262.937 409.154 -248.394 416.258C-186.401 446.804 -128.192 485.459 -75.2273 530.396C-22.8481 574.891 23.6975 627.618 82.2549 669.825C134.878 707.755 191.303 744.444 252.197 766.868C304.294 785.971 362.019 792.959 414.428 776.208C423.924 773.186 433.18 769.41 442.14 764.85C497.36 736.751 533.876 683.192 560.941 626.123C569.505 608.04 577.162 589.603 584.331 571.365C603.08 523.688 621.055 474.851 641.286 429.17C673.945 355.429 718.336 295.429 778.941 247.21C813.247 219.913 857.404 197.017 904.46 197.219C971.516 197.492 1027.47 230.875 1081.49 252.088C1085.75 253.758 1090.04 255.37 1094.35 256.917C1159.49 280.261 1227.67 287.908 1293.72 269.426C1364.1 249.793 1432.25 195.552 1454.25 116.572" stroke="#509863" stroke-width="0.75" stroke-miterlimit="10"/>
<path d="M-712.381 574.462C-663.417 526.256 -608.724 484.319 -550.358 448.881C-524.463 433.152 -497.485 418.52 -468.145 410.106C-409.461 393.285 -349.187 403.135 -293.776 422.609C-278.475 427.987 -263.516 434.019 -249.06 440.48C-187.487 468.257 -129.371 504.159 -76.1698 546.366C-23.563 588.154 23.5578 638.086 81.2832 678.814C135.596 717.138 193 754.973 255.217 778.444C308.373 798.419 367.554 806.176 421.285 789.494C431.032 786.478 440.538 782.686 449.748 778.071C506.502 749.637 543.779 694.807 571.803 636.432C580.662 617.956 588.631 599.123 596.148 580.526C615.807 531.911 635.261 482.216 657.156 435.836C692.827 361.006 740.666 300.947 804.801 253.589C838.866 228.435 881.814 207.047 927.427 206.823C992.445 206.491 1047.48 236.066 1100.49 253.596C1104.68 254.977 1108.87 256.296 1113.09 257.551C1176.91 276.482 1242.61 279.501 1305.02 258.139C1371.51 235.442 1434.43 180.609 1453.58 103.621" stroke="#509863" stroke-width="0.75" stroke-miterlimit="10"/>
<path d="M-704.994 599.561C-657.142 552.31 -603.381 511.54 -545.903 477.464C-520.407 462.342 -493.858 448.377 -465.151 440.119C-407.761 423.616 -348.732 431.556 -294.042 448.741C-278.914 453.496 -264.091 458.878 -249.72 464.695C-188.562 489.704 -130.548 522.853 -77.1089 562.33C-24.2714 601.414 23.4409 648.528 80.3214 687.803C136.347 726.491 194.7 765.496 258.249 790.014C312.464 810.859 373.102 819.387 428.152 802.773C438.149 799.767 447.906 795.955 457.366 791.285C515.657 762.516 553.688 706.413 582.674 646.737C591.826 627.868 600.113 608.638 607.975 589.685C628.54 540.133 649.382 489.535 673.035 442.498C711.573 366.508 762.903 306.29 830.673 259.962C864.45 236.871 906.238 217.069 950.408 216.423C1013.39 215.487 1067.51 241.252 1119.51 255.097C1123.61 256.189 1127.72 257.216 1131.86 258.178C1194.34 272.692 1257.57 271.09 1316.34 246.845C1378.94 221.08 1436.62 165.659 1452.94 90.6599" stroke="#509863" stroke-width="0.75" stroke-miterlimit="10"/>
<path d="M-697.61 624.664C-650.869 578.368 -598.042 538.761 -541.45 506.051C-516.351 491.537 -490.231 478.238 -462.158 470.136C-406.064 453.954 -348.277 459.976 -294.309 474.881C-279.353 479.011 -264.666 483.743 -250.379 488.92C-189.638 511.163 -131.724 541.556 -78.045 578.303C-24.9865 614.677 23.3336 658.944 79.3528 696.793C137.104 735.812 196.396 776.023 261.271 801.587C316.55 823.303 378.64 832.601 435.013 816.056C445.257 813.059 455.27 809.224 464.974 804.502C524.799 775.402 563.59 718.021 593.538 657.043C602.989 637.777 611.585 618.154 619.795 598.843C641.27 548.352 663.5 496.857 688.908 449.161C730.309 372.014 785.031 311.441 856.54 266.339C889.994 245.237 930.651 227.092 973.381 226.026C1034.32 224.486 1087.53 246.443 1138.51 256.605C1142.53 257.405 1146.57 258.142 1150.61 258.812C1211.77 268.909 1272.53 262.682 1327.65 235.555C1386.36 206.725 1438.81 150.712 1452.28 77.7058" stroke="#509863" stroke-width="0.75" stroke-miterlimit="10"/>
<path d="M-690.223 649.766C-644.594 604.427 -592.702 565.986 -536.995 534.637C-512.295 520.731 -486.604 508.098 -459.165 500.152C-404.368 484.289 -347.822 488.397 -294.572 501.02C-279.788 504.523 -265.238 508.609 -251.036 513.142C-190.714 532.616 -132.894 560.257 -78.9776 594.274C-25.6916 627.937 23.2427 669.341 78.3909 705.782C137.891 745.103 198.102 786.55 264.3 813.16C320.638 835.744 384.184 845.816 441.88 829.338C452.374 826.349 462.637 822.497 472.592 817.723C533.954 788.288 573.503 729.637 604.41 667.352C614.153 647.693 623.064 627.67 631.621 608.005C654.007 556.578 677.621 504.179 704.784 455.826C749.051 377.522 807.072 316.371 882.406 272.715C915.52 253.527 955.068 237.118 996.355 235.627C1055.25 233.482 1107.55 251.629 1157.52 258.11C1161.46 258.62 1165.41 259.065 1169.36 259.442C1229.19 265.123 1287.48 254.275 1338.96 224.265C1393.78 192.367 1441 135.766 1451.63 64.7483" stroke="#509863" stroke-width="0.75" stroke-miterlimit="10"/>
<path d="M-682.839 674.869C-638.324 630.484 -587.362 593.211 -532.542 563.224C-508.239 549.925 -482.981 537.955 -456.175 530.169C-402.675 514.624 -347.367 516.811 -294.842 527.159C-280.23 530.039 -265.817 533.474 -251.699 537.364C-191.793 554.069 -134.074 578.957 -79.917 610.244C-26.4068 641.199 23.1613 679.714 77.4223 714.775C138.69 754.359 199.799 797.076 267.326 824.733C324.723 848.188 389.725 859.03 448.744 842.621C459.488 839.641 470.002 835.77 480.207 830.941C543.103 801.171 583.411 741.246 615.277 677.657C625.316 657.605 634.539 637.186 643.444 617.163C666.737 564.797 691.738 511.498 720.66 462.485C767.79 383.024 829.035 321.045 908.275 279.088C941.041 261.74 979.485 247.141 1019.33 245.227C1076.19 242.481 1127.57 256.816 1176.53 259.611C1180.39 259.829 1184.25 259.985 1188.12 260.073C1246.62 261.34 1302.44 245.864 1350.27 212.971C1401.2 178.009 1443.18 120.816 1450.98 51.7875" stroke="#509863" stroke-width="0.75" stroke-miterlimit="10"/>
<path d="M-675.455 699.971C-632.052 656.542 -582.026 620.436 -528.09 591.81C-504.186 579.119 -479.354 567.816 -453.185 560.185C-400.978 544.962 -346.915 545.222 -295.111 553.298C-280.672 555.551 -266.398 558.339 -252.362 561.589C-192.872 575.525 -135.253 597.66 -80.8593 626.22C-27.1216 654.469 23.0834 690.072 76.4507 723.771C139.506 763.586 201.492 807.609 270.345 836.313C328.805 860.639 395.26 872.254 455.601 855.91C466.596 852.939 477.36 849.049 487.815 844.165C552.248 814.064 593.314 752.861 626.139 687.969C636.473 667.524 646.009 646.708 655.261 626.328C679.463 573.022 705.853 518.826 736.529 469.157C786.526 388.54 850.927 325.455 934.138 285.471C966.566 269.891 1003.9 257.174 1042.3 254.834C1097.12 251.483 1147.59 262.006 1195.53 261.122C1199.31 261.051 1203.09 260.914 1206.87 260.71C1264.05 257.561 1317.39 237.46 1361.57 201.688C1408.61 163.657 1445.36 105.876 1450.32 38.8397" stroke="#509863" stroke-width="0.75" stroke-miterlimit="10"/>
<path d="M-668.068 725.071C-625.776 682.597 -576.683 647.654 -523.634 620.393C-500.127 608.31 -475.727 597.673 -450.189 590.198C-399.278 575.294 -346.447 573.536 -295.375 579.434C-281.104 581.033 -266.97 583.201 -253.018 585.807C-193.947 596.978 -136.423 616.357 -81.7919 642.187C-27.8267 667.729 23.0218 700.4 75.4921 732.757C140.354 772.757 203.198 818.129 273.378 847.879C332.897 873.076 400.808 885.461 462.472 869.183C473.717 866.219 484.731 862.312 495.436 857.372C561.403 826.937 603.227 764.46 637.016 698.265C647.647 677.423 657.494 656.214 667.094 635.476C692.207 581.235 719.981 526.135 752.415 475.807C805.275 394.032 872.786 329.547 960.018 291.834C992.127 277.954 1028.33 267.187 1065.29 264.424C1118.06 260.469 1167.62 267.184 1214.55 262.614C1218.25 262.253 1221.95 261.824 1225.64 261.327C1281.49 253.761 1332.36 229.039 1372.9 190.384C1416.05 149.286 1447.56 90.9166 1449.68 25.8691" stroke="#509863" stroke-width="0.75" stroke-miterlimit="10"/>
<path d="M-660.684 750.173C-619.507 708.652 -571.347 674.879 -519.182 648.98C-496.075 637.504 -472.103 627.533 -447.199 620.215C-397.585 605.632 -346.002 601.963 -295.645 605.574C-281.55 606.549 -267.549 608.066 -253.681 610.029C-195.026 618.43 -137.603 635.057 -82.7346 658.158C-28.5418 680.988 22.9567 710.716 74.5202 741.749C141.215 781.889 204.891 828.659 276.397 859.456C336.979 885.523 406.342 898.679 469.326 882.468C480.821 879.514 492.088 875.588 503.041 870.596C570.545 839.826 613.126 776.078 647.874 708.577C658.8 687.342 668.96 665.737 678.908 644.641C704.93 589.46 734.089 533.461 768.278 482.476C824.001 399.544 894.597 333.343 985.871 298.214C1017.69 285.968 1052.73 277.216 1088.25 274.028C1138.98 269.468 1187.63 272.374 1233.54 264.122C1237.16 263.469 1240.78 262.751 1244.38 261.961C1298.9 249.978 1347.3 220.632 1384.19 179.094C1423.45 134.931 1449.73 75.9703 1449.01 12.915" stroke="#509863" stroke-width="0.75" stroke-miterlimit="10"/>
<path d="M-653.3 775.276C-613.235 734.71 -566.006 702.103 -514.729 677.57C-492.018 666.702 -468.476 657.397 -444.209 650.234C-395.892 635.97 -345.557 630.393 -295.914 631.716C-281.991 632.067 -268.127 632.935 -254.344 634.254C-196.108 639.887 -138.783 653.764 -83.6734 674.131C-29.2564 694.255 22.8985 721.011 73.5521 750.742C142.1 790.976 206.588 839.186 279.423 871.029C341.064 897.964 411.884 911.893 476.19 895.751C487.932 892.806 499.453 888.858 510.656 883.814C579.694 852.712 623.035 787.687 658.742 718.883C669.964 697.254 680.436 675.252 690.732 653.799C717.661 597.683 748.21 540.783 784.154 489.138C842.744 405.046 916.417 336.797 1011.74 304.59C1043.33 293.918 1077.15 287.239 1111.23 283.632C1159.92 278.471 1207.65 277.564 1252.55 265.627C1256.09 264.684 1259.62 263.674 1263.14 262.591C1316.33 246.192 1362.26 212.224 1395.5 167.804C1430.87 120.576 1451.92 61.0239 1448.36 -0.0424805" stroke="#509863" stroke-width="0.75" stroke-miterlimit="10"/>
<path d="M-645.913 800.378C-555.399 708.337 -425.246 660.4 -296.181 657.852C-167.116 655.304 -39.4748 695.646 72.5863 759.731C143.009 800.008 208.287 849.712 282.448 882.602C356.608 915.491 444.161 930.041 518.267 897.031C611.01 855.718 658.03 754.206 702.551 662.958C775.766 512.902 877.313 357.688 1037.61 310.967C1117.45 287.697 1204.71 294.197 1281.89 263.222C1388.9 220.277 1460.12 101.635 1447.71 -13" stroke="#509863" stroke-width="0.75" stroke-miterlimit="10"/>
</svg>
